HIERARCHY
ROOT Hip
{
	OFFSET	0.0000	0.0000	0.0000
	CHANNELS 6 Xposition Yposition Zposition Xrotation Yrotation Zrotation
	JOINT LowerSpine
	{
		OFFSET	0.0000	9.3027	-5.0341
		CHANNELS 3 Xrotation Yrotation Zrotation
		JOINT MiddleSpine
		{
			OFFSET	0.0000	8.4894	0.4435
			CHANNELS 3 Xrotation Yrotation Zrotation
			JOINT Chest
			{
				OFFSET	0.0000	10.5047	-2.3382
				CHANNELS 3 Xrotation Yrotation Zrotation
				JOINT Neck
				{
					OFFSET	0.0000	23.6718	-0.4923
					CHANNELS 3 Xrotation Yrotation Zrotation
					JOINT Head
					{
						OFFSET	0.0000	13.3678	3.6360
						CHANNELS 3 Xrotation Yrotation Zrotation
						End Site
						{
							OFFSET	0.0001	20.5461	0.6133
						}
					}
				}
				JOINT LClavicle
				{
					OFFSET	2.3899	22.8445	7.8267
					CHANNELS 3 Xrotation Yrotation Zrotation
					JOINT LShoulder
					{
						OFFSET	15.5658	3.2767	-5.3020
						CHANNELS 3 Xrotation Yrotation Zrotation
						JOINT LForearm
						{
							OFFSET	29.6580	-0.1053	-0.2570
							CHANNELS 3 Xrotation Yrotation Zrotation
							JOINT LHand
							{
								OFFSET	24.7410	0.0718	-0.1482
								CHANNELS 3 Xrotation Yrotation Zrotation
								JOINT LFinger1
								{
									OFFSET	9.5889	0.8386	2.6633
									CHANNELS 3 Xrotation Yrotation Zrotation
									JOINT LFinger11
									{
										OFFSET	3.5867	-0.8746	0.6320
										CHANNELS 3 Xrotation Yrotation Zrotation
										JOINT LFinger12
										{
											OFFSET	2.4486	-0.5973	0.4316
											CHANNELS 3 Xrotation Yrotation Zrotation
											End Site
											{
												OFFSET	1.7424	-0.5201	0.2826
											}
										}
									}
								}
								JOINT LFinger2
								{
									OFFSET	9.7320	0.9684	0.2319
									CHANNELS 3 Xrotation Yrotation Zrotation
									JOINT LFinger21
									{
										OFFSET	4.4348	0.0124	-0.0262
										CHANNELS 3 Xrotation Yrotation Zrotation
										JOINT LFinger22
										{
											OFFSET	2.4581	0.0075	-0.0150
											CHANNELS 3 Xrotation Yrotation Zrotation
											End Site
											{
												OFFSET	2.2079	-0.1559	0.0030
											}
										}
									}
								}
								JOINT LFinger3
								{
									OFFSET	9.2231	0.6462	-2.1820
									CHANNELS 3 Xrotation Yrotation Zrotation
									JOINT LFinger31
									{
										OFFSET	4.0241	-0.2038	-0.2519
										CHANNELS 3 Xrotation Yrotation Zrotation
										JOINT LFinger32
										{
											OFFSET	2.2931	-0.1153	-0.1441
											CHANNELS 3 Xrotation Yrotation Zrotation
											End Site
											{
												OFFSET	2.0275	-0.2493	-0.0958
											}
										}
									}
								}
								JOINT LFinger4
								{
									OFFSET	8.5587	-0.6505	-3.7684
									CHANNELS 3 Xrotation Yrotation Zrotation
									JOINT LFinger41
									{
										OFFSET	2.4752	-0.5162	-0.6833
										CHANNELS 3 Xrotation Yrotation Zrotation
										JOINT LFinger42
										{
											OFFSET	1.8151	-0.3780	-0.5014
											CHANNELS 3 Xrotation Yrotation Zrotation
											End Site
											{
												OFFSET	1.6110	-0.4427	-0.3696
											}
										}
									}
								}
								JOINT LFinger0
								{
									OFFSET	1.9835	-1.5014	1.5037
									CHANNELS 3 Xrotation Yrotation Zrotation
									JOINT LFinger01
									{
										OFFSET	3.6931	-1.2130	2.7845
										CHANNELS 3 Xrotation Yrotation Zrotation
										JOINT LFinger02
										{
											OFFSET	2.4319	-0.8702	1.7521
											CHANNELS 3 Xrotation Yrotation Zrotation
											End Site
											{
												OFFSET	1.7883	-0.6156	1.2246
											}
										}
									}
								}
							}
						}
					}
				}
				JOINT RClavicle
				{
					OFFSET	-2.3899	22.8445	7.8267
					CHANNELS 3 Xrotation Yrotation Zrotation
					JOINT RShoulder
					{
						OFFSET	-15.5685	3.2773	-5.3030
						CHANNELS 3 Xrotation Yrotation Zrotation
						JOINT RForearm
						{
							OFFSET	-29.6580	-0.1053	-0.2570
							CHANNELS 3 Xrotation Yrotation Zrotation
							JOINT RHand
							{
								OFFSET	-24.7410	0.0718	-0.1482
								CHANNELS 3 Xrotation Yrotation Zrotation
								JOINT RFinger1
								{
									OFFSET	-9.5889	0.8386	2.6633
									CHANNELS 3 Xrotation Yrotation Zrotation
									JOINT RFinger11
									{
										OFFSET	-3.5867	-0.8746	0.6320
										CHANNELS 3 Xrotation Yrotation Zrotation
										JOINT RFinger12
										{
											OFFSET	-2.4486	-0.5973	0.4316
											CHANNELS 3 Xrotation Yrotation Zrotation
											End Site
											{
												OFFSET	-1.7424	-0.5201	0.2826
											}
										}
									}
								}
								JOINT RFinger2
								{
									OFFSET	-9.7320	0.9684	0.2319
									CHANNELS 3 Xrotation Yrotation Zrotation
									JOINT RFinger21
									{
										OFFSET	-4.4348	0.0124	-0.0262
										CHANNELS 3 Xrotation Yrotation Zrotation
										JOINT RFinger22
										{
											OFFSET	-2.4581	0.0075	-0.0150
											CHANNELS 3 Xrotation Yrotation Zrotation
											End Site
											{
												OFFSET	-2.2079	-0.1559	0.0030
											}
										}
									}
								}
								JOINT RFinger3
								{
									OFFSET	-9.2231	0.6462	-2.1820
									CHANNELS 3 Xrotation Yrotation Zrotation
									JOINT RFinger31
									{
										OFFSET	-4.0241	-0.2037	-0.2519
										CHANNELS 3 Xrotation Yrotation Zrotation
										JOINT RFinger32
										{
											OFFSET	-2.2931	-0.1153	-0.1441
											CHANNELS 3 Xrotation Yrotation Zrotation
											End Site
											{
												OFFSET	-2.0275	-0.2493	-0.0958
											}
										}
									}
								}
								JOINT RFinger4
								{
									OFFSET	-8.5587	-0.6504	-3.7684
									CHANNELS 3 Xrotation Yrotation Zrotation
									JOINT RFinger41
									{
										OFFSET	-2.4752	-0.5162	-0.6833
										CHANNELS 3 Xrotation Yrotation Zrotation
										JOINT RFinger42
										{
											OFFSET	-1.8151	-0.3780	-0.5014
											CHANNELS 3 Xrotation Yrotation Zrotation
											End Site
											{
												OFFSET	-1.6110	-0.4427	-0.3696
											}
										}
									}
								}
								JOINT RFinger0
								{
									OFFSET	-1.9835	-1.5014	1.5037
									CHANNELS 3 Xrotation Yrotation Zrotation
									JOINT RFinger01
									{
										OFFSET	-3.6931	-1.2130	2.7845
										CHANNELS 3 Xrotation Yrotation Zrotation
										JOINT RFinger02
										{
											OFFSET	-2.4319	-0.8701	1.7521
											CHANNELS 3 Xrotation Yrotation Zrotation
											End Site
											{
												OFFSET	-1.7883	-0.6156	1.2246
											}
										}
									}
								}
							}
						}
					}
				}
			}
		}
	}
	JOINT RThigh
	{
		OFFSET	-9.9516	4.2051	-0.8203
		CHANNELS 3 Xrotation Yrotation Zrotation
		JOINT RShin
		{
			OFFSET	-0.7963	-43.2848	0.0000
			CHANNELS 3 Xrotation Yrotation Zrotation
			JOINT RFoot
			{
				OFFSET	0.0000	-42.5030	0.0000
				CHANNELS 3 Xrotation Yrotation Zrotation
				JOINT RToe
				{
					OFFSET	0.0000	-4.6715	9.7686
					CHANNELS 3 Xrotation Yrotation Zrotation
					End Site
					{
						OFFSET	0.0000	0.0000	6.5534
					}
				}
			}
		}
	}
	JOINT LThigh
	{
		OFFSET	9.9515	4.2054	-0.8203
		CHANNELS 3 Xrotation Yrotation Zrotation
		JOINT LShin
		{
			OFFSET	0.7964	-43.2851	0.0000
			CHANNELS 3 Xrotation Yrotation Zrotation
			JOINT LFoot
			{
				OFFSET	0.0000	-42.5030	0.0000
				CHANNELS 3 Xrotation Yrotation Zrotation
				JOINT LToe
				{
					OFFSET	0.0000	-4.6715	9.7687
					CHANNELS 3 Xrotation Yrotation Zrotation
					End Site
					{
						OFFSET	0.0000	0.0000	6.5534
					}
				}
			}
		}
	}
}
MOTION
Frames:	7
Frame Time: 0.0333333000
	0.2181	43.4415	2.8116	31.251070	5.615188	-0.389920	0.000000	0.000000	0.000000	-8.849734	-1.897037	-0.257302	-29.773240	-6.060170	-2.227021	0.000000	0.000000	0.000000	0.000000	0.000000	0.000000	0.000000	0.000000	-10.589740	32.225550	-20.201670	-38.780040	20.295650	-61.223460	-0.514216	0.000000	0.000000	0.000000	0.000000	0.000000	0.000000	0.000000	0.000000	0.000000	0.000000	0.000000	0.000000	0.000000	0.000000	0.000000	0.000000	0.000000	0.000000	0.000000	0.000000	0.000000	0.000000	0.000000	0.000000	0.000000	0.000000	0.000000	0.000000	0.000000	0.000000	0.000000	0.000000	0.000000	0.000000	0.000000	0.000000	0.000000	0.000000	0.000000	0.000000	0.000000	0.000000	0.000000	0.000000	0.000000	0.000000	0.000000	0.000000	0.000000	0.000000	10.011760	34.459560	9.455647	46.584950	17.662070	65.706820	0.928422	0.000000	0.000000	0.000000	0.000000	0.000000	0.000000	0.000000	0.000000	0.000000	0.000000	0.000000	0.000000	0.000000	0.000000	0.000000	0.000000	0.000000	0.000000	0.000000	0.000000	0.000000	0.000000	0.000000	0.000000	0.000000	0.000000	0.000000	0.000000	0.000000	0.000000	0.000000	0.000000	0.000000	0.000000	0.000000	0.000000	0.000000	0.000000	0.000000	0.000000	0.000000	0.000000	0.000000	0.000000	0.000000	0.000000	0.000000	0.000000	-124.292900	9.498112	-16.695890	100.658400	4.111489	27.248820	-0.309766	-0.088854	-0.041801	0.000000	0.000000	0.000000	-130.993300	8.631756	-5.545372	95.593280	0.931601	-2.297472	0.317913	-1.413270	-0.674588	0.000000	0.000000	0.000000
	0.5878	44.0776	6.5176	31.256430	3.896919	0.442333	0.000000	0.000000	0.000000	-8.733884	-1.358605	0.320555	-29.885190	-4.891068	-1.066803	0.000000	0.000000	0.000000	0.000000	0.000000	0.000000	0.000000	0.000000	-10.860250	30.712430	-24.293640	-41.105850	19.198910	-54.614780	-0.521469	0.000000	0.000000	0.000000	0.000000	0.000000	0.000000	0.000000	0.000000	0.000000	0.000000	0.000000	0.000000	0.000000	0.000000	0.000000	0.000000	0.000000	0.000000	0.000000	0.000000	0.000000	0.000000	0.000000	0.000000	0.000000	0.000000	0.000000	0.000000	0.000000	0.000000	0.000000	0.000000	0.000000	0.000000	0.000000	0.000000	0.000000	0.000000	0.000000	0.000000	0.000000	0.000000	0.000000	0.000000	0.000000	0.000000	0.000000	0.000000	0.000000	0.000000	10.079250	32.326430	14.944960	44.856040	17.817610	57.207440	0.502170	0.000000	0.000000	0.000000	0.000000	0.000000	0.000000	0.000000	0.000000	0.000000	0.000000	0.000000	0.000000	0.000000	0.000000	0.000000	0.000000	0.000000	0.000000	0.000000	0.000000	0.000000	0.000000	0.000000	0.000000	0.000000	0.000000	0.000000	0.000000	0.000000	0.000000	0.000000	0.000000	0.000000	0.000000	0.000000	0.000000	0.000000	0.000000	0.000000	0.000000	0.000000	0.000000	0.000000	0.000000	0.000000	0.000000	0.000000	0.000000	-124.417100	7.297289	-14.235730	100.245600	3.376998	24.723400	-0.132273	0.051696	0.024955	0.000000	0.000000	0.000000	-129.755800	6.744674	-4.226399	95.078630	0.855247	-3.371165	0.232124	-0.347072	-0.165582	0.000000	0.000000	0.000000
	1.1785	44.6194	10.6304	31.399560	3.494412	1.106104	0.000000	0.000000	0.000000	-8.563610	-1.006535	0.877835	-30.173390	-4.443947	-0.658654	0.000000	0.000000	0.000000	0.000000	0.000000	0.000000	0.000000	0.000000	-10.812390	28.394830	-28.188810	-43.751020	17.555650	-47.914670	-0.436380	0.000000	0.000000	0.000000	0.000000	0.000000	0.000000	0.000000	0.000000	0.000000	0.000000	0.000000	0.000000	0.000000	0.000000	0.000000	0.000000	0.000000	0.000000	0.000000	0.000000	0.000000	0.000000	0.000000	0.000000	0.000000	0.000000	0.000000	0.000000	0.000000	0.000000	0.000000	0.000000	0.000000	0.000000	0.000000	0.000000	0.000000	0.000000	0.000000	0.000000	0.000000	0.000000	0.000000	0.000000	0.000000	0.000000	0.000000	0.000000	0.000000	0.000000	9.867658	30.145570	20.059780	43.961700	17.256480	49.205570	0.362000	0.000000	0.000000	0.000000	0.000000	0.000000	0.000000	0.000000	0.000000	0.000000	0.000000	0.000000	0.000000	0.000000	0.000000	0.000000	0.000000	0.000000	0.000000	0.000000	0.000000	0.000000	0.000000	0.000000	0.000000	0.000000	0.000000	0.000000	0.000000	0.000000	0.000000	0.000000	0.000000	0.000000	0.000000	0.000000	0.000000	0.000000	0.000000	0.000000	0.000000	0.000000	0.000000	0.000000	0.000000	0.000000	0.000000	0.000000	0.000000	-124.394200	7.183923	-13.562940	99.940870	3.008101	23.569710	-0.098099	0.010484	0.005005	0.000000	0.000000	0.000000	-128.872500	6.381146	-3.999431	94.436710	0.863236	-3.569451	0.039592	-0.049117	-0.023460	0.000000	0.000000	0.000000
	1.6766	44.8448	14.8038	31.580910	3.661224	1.648928	0.000000	0.000000	0.000000	-8.423326	-0.822726	1.242440	-30.344020	-4.318099	-0.512165	0.000000	0.000000	0.000000	0.000000	0.000000	0.000000	0.000000	0.000000	-10.632320	25.667560	-30.512740	-46.246450	15.439410	-43.049430	-0.304157	0.000000	0.000000	0.000000	0.000000	0.000000	0.000000	0.000000	0.000000	0.000000	0.000000	0.000000	0.000000	0.000000	0.000000	0.000000	0.000000	0.000000	0.000000	0.000000	0.000000	0.000000	0.000000	0.000000	0.000000	0.000000	0.000000	0.000000	0.000000	0.000000	0.000000	0.000000	0.000000	0.000000	0.000000	0.000000	0.000000	0.000000	0.000000	0.000000	0.000000	0.000000	0.000000	0.000000	0.000000	0.000000	0.000000	0.000000	0.000000	0.000000	0.000000	9.602900	28.161090	24.292470	43.425240	16.578080	43.071480	0.267636	0.000000	0.000000	0.000000	0.000000	0.000000	0.000000	0.000000	0.000000	0.000000	0.000000	0.000000	0.000000	0.000000	0.000000	0.000000	0.000000	0.000000	0.000000	0.000000	0.000000	0.000000	0.000000	0.000000	0.000000	0.000000	0.000000	0.000000	0.000000	0.000000	0.000000	0.000000	0.000000	0.000000	0.000000	0.000000	0.000000	0.000000	0.000000	0.000000	0.000000	0.000000	0.000000	0.000000	0.000000	0.000000	0.000000	0.000000	0.000000	-124.334900	7.976451	-13.725790	99.521200	2.746270	23.130550	-0.125649	-0.060385	-0.028959	0.000000	0.000000	0.000000	-128.390600	6.401680	-4.050429	93.883660	0.889438	-3.520846	-0.162254	-0.214962	-0.103193	0.000000	0.000000	0.000000
	1.8770	44.7574	19.0182	31.707320	3.892436	1.912970	0.000000	0.000000	0.000000	-8.351624	-0.751759	1.391062	-30.321320	-4.219309	-0.270774	0.000000	0.000000	0.000000	0.000000	0.000000	0.000000	0.000000	0.000000	-10.494980	23.396270	-31.164910	-47.835750	13.453020	-40.980030	-0.201048	0.000000	0.000000	0.000000	0.000000	0.000000	0.000000	0.000000	0.000000	0.000000	0.000000	0.000000	0.000000	0.000000	0.000000	0.000000	0.000000	0.000000	0.000000	0.000000	0.000000	0.000000	0.000000	0.000000	0.000000	0.000000	0.000000	0.000000	0.000000	0.000000	0.000000	0.000000	0.000000	0.000000	0.000000	0.000000	0.000000	0.000000	0.000000	0.000000	0.000000	0.000000	0.000000	0.000000	0.000000	0.000000	0.000000	0.000000	0.000000	0.000000	0.000000	9.438391	26.719770	27.018000	42.843450	16.045830	39.869100	0.208383	0.000000	0.000000	0.000000	0.000000	0.000000	0.000000	0.000000	0.000000	0.000000	0.000000	0.000000	0.000000	0.000000	0.000000	0.000000	0.000000	0.000000	0.000000	0.000000	0.000000	0.000000	0.000000	0.000000	0.000000	0.000000	0.000000	0.000000	0.000000	0.000000	0.000000	0.000000	0.000000	0.000000	0.000000	0.000000	0.000000	0.000000	0.000000	0.000000	0.000000	0.000000	0.000000	0.000000	0.000000	0.000000	0.000000	0.000000	0.000000	-124.190400	8.487495	-14.024770	98.940980	2.507958	23.153790	-0.123614	-0.007962	-0.003801	0.000000	0.000000	0.000000	-128.186400	6.086053	-3.921301	93.591560	0.904583	-3.483148	-0.217081	-0.450934	-0.216610	0.000000	0.000000	0.000000
	1.7013	44.5011	23.3278	31.694330	4.063899	1.627809	0.000000	0.000000	0.000000	-8.305148	-0.713220	1.469118	-30.170140	-4.047634	0.221480	0.000000	0.000000	0.000000	0.000000	0.000000	0.000000	0.000000	0.000000	-10.386020	22.128130	-30.992960	-48.245930	12.220350	-41.422410	-0.166427	0.000000	0.000000	0.000000	0.000000	0.000000	0.000000	0.000000	0.000000	0.000000	0.000000	0.000000	0.000000	0.000000	0.000000	0.000000	0.000000	0.000000	0.000000	0.000000	0.000000	0.000000	0.000000	0.000000	0.000000	0.000000	0.000000	0.000000	0.000000	0.000000	0.000000	0.000000	0.000000	0.000000	0.000000	0.000000	0.000000	0.000000	0.000000	0.000000	0.000000	0.000000	0.000000	0.000000	0.000000	0.000000	0.000000	0.000000	0.000000	0.000000	0.000000	9.317055	26.087390	28.014870	42.144100	15.818430	39.680730	0.196206	0.000000	0.000000	0.000000	0.000000	0.000000	0.000000	0.000000	0.000000	0.000000	0.000000	0.000000	0.000000	0.000000	0.000000	0.000000	0.000000	0.000000	0.000000	0.000000	0.000000	0.000000	0.000000	0.000000	0.000000	0.000000	0.000000	0.000000	0.000000	0.000000	0.000000	0.000000	0.000000	0.000000	0.000000	0.000000	0.000000	0.000000	0.000000	0.000000	0.000000	0.000000	0.000000	0.000000	0.000000	0.000000	0.000000	0.000000	0.000000	-123.889800	8.207738	-14.290970	98.460900	2.406536	23.735460	-0.070614	0.122986	0.058916	0.000000	0.000000	0.000000	-128.131000	5.442405	-3.655420	93.657040	0.908150	-3.389056	-0.087992	-0.514664	-0.246573	0.000000	0.000000	0.000000
	1.1827	44.2138	27.7073	31.506060	4.156225	0.772614	0.000000	0.000000	0.000000	-8.258195	-0.675196	1.546499	-29.903770	-3.788960	1.008048	0.000000	0.000000	0.000000	0.000000	0.000000	0.000000	0.000000	0.000000	-10.272130	21.947800	-30.450450	-47.616840	11.930560	-43.625690	-0.192037	0.000000	0.000000	0.000000	0.000000	0.000000	0.000000	0.000000	0.000000	0.000000	0.000000	0.000000	0.000000	0.000000	0.000000	0.000000	0.000000	0.000000	0.000000	0.000000	0.000000	0.000000	0.000000	0.000000	0.000000	0.000000	0.000000	0.000000	0.000000	0.000000	0.000000	0.000000	0.000000	0.000000	0.000000	0.000000	0.000000	0.000000	0.000000	0.000000	0.000000	0.000000	0.000000	0.000000	0.000000	0.000000	0.000000	0.000000	0.000000	0.000000	0.000000	9.190522	26.206450	27.508340	41.509650	15.883380	41.607250	0.207444	0.000000	0.000000	0.000000	0.000000	0.000000	0.000000	0.000000	0.000000	0.000000	0.000000	0.000000	0.000000	0.000000	0.000000	0.000000	0.000000	0.000000	0.000000	0.000000	0.000000	0.000000	0.000000	0.000000	0.000000	0.000000	0.000000	0.000000	0.000000	0.000000	0.000000	0.000000	0.000000	0.000000	0.000000	0.000000	0.000000	0.000000	0.000000	0.000000	0.000000	0.000000	0.000000	0.000000	0.000000	0.000000	0.000000	0.000000	0.000000	-123.428400	7.284139	-14.491000	98.277600	2.484034	24.667110	0.002534	0.180216	0.086159	0.000000	0.000000	0.000000	-128.063700	4.688885	-3.368967	93.897670	0.909285	-3.230168	0.092689	-0.395490	-0.188710	0.000000	0.000000	0.000000
